HIERARCHY
ROOT Hips
{
  OFFSET 5.84602e-005 68.8428 3.50346
  CHANNELS 6 Xposition Yposition Zposition Zrotation Xrotation Yrotation
  JOINT Spine
  {
    OFFSET 0 8.597 -4.6522
    CHANNELS 3 Zrotation Xrotation Yrotation
    JOINT Spine1
    {
      OFFSET 0 7.8454 0.4098
      CHANNELS 3 Zrotation Xrotation Yrotation
      JOINT Spine2
      {
        OFFSET 0 9.7078 -2.1609
        CHANNELS 3 Zrotation Xrotation Yrotation
        JOINT Neck
        {
          OFFSET 0 21.8761 -0.4549
          CHANNELS 3 Zrotation Xrotation Yrotation
          JOINT Head
          {
            OFFSET 0 12.3537 3.3602
            CHANNELS 3 Zrotation Xrotation Yrotation
            End Site
            {
              OFFSET 0.0001 18.9506 0.5657
            }
          }
        }
        JOINT LeftShoulder
        {
          OFFSET 2.2086 21.1115 7.2329
          CHANNELS 3 Zrotation Xrotation Yrotation
          JOINT LeftArm
          {
            OFFSET 13.1193 3.0282 -4.8998
            CHANNELS 3 Zrotation Xrotation Yrotation
            JOINT LeftForeArm
            {
              OFFSET 27.4081 -0.0973053 -0.2375
              CHANNELS 3 Zrotation Xrotation Yrotation
              JOINT LeftHand
              {
                OFFSET 22.8641 0.0662994 -0.1369
                CHANNELS 3 Zrotation Xrotation Yrotation
                JOINT LeftHandIndex1
                {
                  OFFSET 8.8614 0.775009 2.4612
                  CHANNELS 3 Zrotation Xrotation Yrotation
                  JOINT LeftHandIndex2
                  {
                    OFFSET 3.3146 -0.808304 0.5841
                    CHANNELS 3 Zrotation Xrotation Yrotation
                    JOINT LeftHandIndex3
                    {
                      OFFSET 2.2628 -0.552002 0.3989
                      CHANNELS 3 Zrotation Xrotation Yrotation
                      End Site
                      {
                        OFFSET 1.6102 -0.4807 0.2612
                      }
                    }
                  }
                }
                JOINT LeftHandMiddle1
                {
                  OFFSET 8.9937 0.895004 0.2143
                  CHANNELS 3 Zrotation Xrotation Yrotation
                  JOINT LeftHandMiddle2
                  {
                    OFFSET 4.0984 0.0113983 -0.0242
                    CHANNELS 3 Zrotation Xrotation Yrotation
                    JOINT LeftHandMiddle3
                    {
                      OFFSET 2.2716 0.00689697 -0.0138001
                      CHANNELS 3 Zrotation Xrotation Yrotation
                      End Site
                      {
                        OFFSET 2.0404 -0.1441 0.0027
                      }
                    }
                  }
                }
                JOINT LeftHandRing1
                {
                  OFFSET 8.5234 0.597198 -2.0164
                  CHANNELS 3 Zrotation Xrotation Yrotation
                  JOINT LeftHandRing2
                  {
                    OFFSET 3.7188 -0.188293 -0.2328
                    CHANNELS 3 Zrotation Xrotation Yrotation
                    JOINT LeftHandRing3
                    {
                      OFFSET 2.1191 -0.106598 -0.1332
                      CHANNELS 3 Zrotation Xrotation Yrotation
                      End Site
                      {
                        OFFSET 1.8737 -0.2304 -0.0886
                      }
                    }
                  }
                }
                JOINT LeftHandPinky1
                {
                  OFFSET 7.9094 -0.601089 -3.4825
                  CHANNELS 3 Zrotation Xrotation Yrotation
                  JOINT LeftHandPinky2
                  {
                    OFFSET 2.2874 -0.477005 -0.6314
                    CHANNELS 3 Zrotation Xrotation Yrotation
                    JOINT LeftHandPinky3
                    {
                      OFFSET 1.6774 -0.349396 -0.4633
                      CHANNELS 3 Zrotation Xrotation Yrotation
                      End Site
                      {
                        OFFSET 1.4888 -0.4091 -0.3416
                      }
                    }
                  }
                }
                JOINT LeftHandThumb1
                {
                  OFFSET 1.833 -1.3875 1.3896
                  CHANNELS 3 Zrotation Xrotation Yrotation
                  JOINT LeftHandThumb2
                  {
                    OFFSET 3.4129 -1.121 2.5732
                    CHANNELS 3 Zrotation Xrotation Yrotation
                    JOINT LeftHandThumb3
                    {
                      OFFSET 2.2474 -0.804199 1.6192
                      CHANNELS 3 Zrotation Xrotation Yrotation
                      End Site
                      {
                        OFFSET 1.6527 -0.5689 1.1317
                      }
                    }
                  }
                }
              }
            }
          }
        }
        JOINT RightShoulder
        {
          OFFSET -2.2086 21.1115 7.2329
          CHANNELS 3 Zrotation Xrotation Yrotation
          JOINT RightArm
          {
            OFFSET -13.1216 3.0287 -4.9007
            CHANNELS 3 Zrotation Xrotation Yrotation
            JOINT RightForeArm
            {
              OFFSET -27.4081 -0.0973053 -0.2375
              CHANNELS 3 Zrotation Xrotation Yrotation
              JOINT RightHand
              {
                OFFSET -22.8641 0.0664063 -0.1369
                CHANNELS 3 Zrotation Xrotation Yrotation
                JOINT RightHandIndex1
                {
                  OFFSET -8.8614 0.774994 2.4612
                  CHANNELS 3 Zrotation Xrotation Yrotation
                  JOINT RightHandIndex2
                  {
                    OFFSET -3.3146 -0.808304 0.5841
                    CHANNELS 3 Zrotation Xrotation Yrotation
                    JOINT RightHandIndex3
                    {
                      OFFSET -2.2628 -0.552002 0.3989
                      CHANNELS 3 Zrotation Xrotation Yrotation
                      End Site
                      {
                        OFFSET -1.6102 -0.4807 0.2612
                      }
                    }
                  }
                }
                JOINT RightHandMiddle1
                {
                  OFFSET -8.9937 0.894989 0.2143
                  CHANNELS 3 Zrotation Xrotation Yrotation
                  JOINT RightHandMiddle2
                  {
                    OFFSET -4.0984 0.0113983 -0.0242
                    CHANNELS 3 Zrotation Xrotation Yrotation
                    JOINT RightHandMiddle3
                    {
                      OFFSET -2.2716 0.00691223 -0.0138001
                      CHANNELS 3 Zrotation Xrotation Yrotation
                      End Site
                      {
                        OFFSET -2.0404 -0.1441 0.0027
                      }
                    }
                  }
                }
                JOINT RightHandRing1
                {
                  OFFSET -8.5234 0.597198 -2.0164
                  CHANNELS 3 Zrotation Xrotation Yrotation
                  JOINT RightHandRing2
                  {
                    OFFSET -3.7188 -0.188309 -0.2328
                    CHANNELS 3 Zrotation Xrotation Yrotation
                    JOINT RightHandRing3
                    {
                      OFFSET -2.1191 -0.106598 -0.1332
                      CHANNELS 3 Zrotation Xrotation Yrotation
                      End Site
                      {
                        OFFSET -1.8737 -0.2304 -0.0886
                      }
                    }
                  }
                }
                JOINT RightHandPinky1
                {
                  OFFSET -7.9094 -0.601105 -3.4825
                  CHANNELS 3 Zrotation Xrotation Yrotation
                  JOINT RightHandPinky2
                  {
                    OFFSET -2.2874 -0.477005 -0.6314
                    CHANNELS 3 Zrotation Xrotation Yrotation
                    JOINT RightHandPinky3
                    {
                      OFFSET -1.6774 -0.349396 -0.4633
                      CHANNELS 3 Zrotation Xrotation Yrotation
                      End Site
                      {
                        OFFSET -1.4888 -0.4091 -0.3416
                      }
                    }
                  }
                }
                JOINT RightHandThumb1
                {
                  OFFSET -1.833 -1.38751 1.3896
                  CHANNELS 3 Zrotation Xrotation Yrotation
                  JOINT RightHandThumb2
                  {
                    OFFSET -3.41299 -1.12099 2.5732
                    CHANNELS 3 Zrotation Xrotation Yrotation
                    JOINT RightHandThumb3
                    {
                      OFFSET -2.24741 -0.804108 1.6192
                      CHANNELS 3 Zrotation Xrotation Yrotation
                      End Site
                      {
                        OFFSET -1.6527 -0.5689 1.1317
                      }
                    }
                  }
                }
              }
            }
          }
        }
      }
    }
  }
  JOINT RightUpLeg
  {
    OFFSET -9.1966 3.8861 -0.7581
    CHANNELS 3 Zrotation Xrotation Yrotation
    JOINT RightLeg
    {
      OFFSET -0.7359 -41.0265 0
      CHANNELS 3 Zrotation Xrotation Yrotation
      JOINT RightFoot
      {
        OFFSET 0 -40.2855 0
        CHANNELS 3 Zrotation Xrotation Yrotation
        JOINT RightToeBase
        {
          OFFSET 0 -5.6122 11.7359
          CHANNELS 3 Zrotation Xrotation Yrotation
          End Site
          {
            OFFSET 0 0 7.8731
          }
        }
      }
    }
  }
  JOINT LeftUpLeg
  {
    OFFSET 9.1965 3.8864 -0.7581
    CHANNELS 3 Zrotation Xrotation Yrotation
    JOINT LeftLeg
    {
      OFFSET 0.7359 -41.0268 0
      CHANNELS 3 Zrotation Xrotation Yrotation
      JOINT LeftFoot
      {
        OFFSET 0 -40.2855 0
        CHANNELS 3 Zrotation Xrotation Yrotation
        JOINT LeftToeBase
        {
          OFFSET 0 -5.6122 11.7359
          CHANNELS 3 Zrotation Xrotation Yrotation
          End Site
          {
            OFFSET 0 0 7.8731
          }
        }
      }
    }
  }
}
MOTION
Frames:	4
Frame Time:	0.0333333
5.84602e-005 68.8428 3.50346 0 0 -0 0 0 -0 0 0 -0 0 0 -0 0 0 -0 0 0 -0 0 0 -0 0 0 -0 0 0 -0 0 0 -0 0 0 -0 0 0 -0 0 0 -0 0 0 -0 -0.0146107 -8.87603e-005 -2.63497e-007 2.99804e-018 -2.42657e-020 -1.42182e-022 0 0 -0 -0.0187562 -0.001176 5.858e-005 5.06224e-018 3.88251e-019 1.21329e-020 0 0 -0 -0.012269 -0.00324817 0.000675346 -1.74678e-018 3.88251e-019 -0 0 0 -0 0 0 -0 0 0 -0 0 0 -0 0 0 -0 0 0 -0 0 0 -0 0 0 -0 0 0 -0 0 0 -0 0 0 -0 0.0149955 -9.10982e-005 2.64101e-007 -9.69331e-018 1.21329e-020 -4.7394e-023 0 0 -0 0.0189956 -0.00119102 -5.96516e-005 -5.41541e-019 0 2.42657e-020 0 0 -0 0.0122698 -0.00324857 -0.000673756 -2.00796e-019 0 -1.94126e-019 0 0 -0 0 0 -0 0 0 -0 3.39842 1.33031 -0.0637918 -5.65207e-008 0.834868 -0.000436188 -3.39935 -2.16518 -0.0642563 -8.89002e-024 -1.18485e-023 -1.48106e-024 -3.39844 1.35642 0.0640283 -3.18788e-007 0.782166 -0.000588827 3.39931 -2.13858 0.0634662 1.1399e-023 0 -0 
-41.4223 31.3426 20.3787 -7.50112 -13.7183 70.9374 -0.827615 11.92 -0.810175 -1.52994 23.8496 -1.4899 -1.52992 23.8496 -1.48993 0.000320415 -20.0002 5.06022e-005 -1.294e-006 -8.88984 -2.77516e-006 0.0012133 -7.4094 0.00159515 17.273 -24.6666 -62.0823 -3.96729e-006 5.11518e-007 -8.15043 40.7694 0.0438719 -0.00560592 -4.17448e-015 -1.59028e-015 1.59028e-015 -3.57812e-015 0 4.77083e-015 -2.78299e-015 7.95139e-016 4.77083e-015 -4.17448e-015 -1.59028e-015 1.59028e-015 -0.01463 -8.91216e-005 -9.34763e-008 -1.96733e-007 -2.98236e-008 -1.41941e-007 -4.17448e-015 -1.59028e-015 1.59028e-015 -0.0187623 -0.0011759 5.96747e-005 -1.19271e-015 1.59028e-015 -0 -4.17448e-015 -1.59028e-015 1.59028e-015 -0.0122701 -0.00324838 0.000675022 -1.98785e-016 0 1.59028e-015 -4.17448e-015 -1.59028e-015 1.59028e-015 -3.57812e-015 0 4.77083e-015 -2.78299e-015 7.95139e-016 4.77083e-015 -2.59342e-006 -7.40903 1.81213e-006 16.0842 -24.6309 62.0491 -6.1048 13.6153 24.4325 -34.0964 22.2226 -0.00168234 3.75579e-007 9.72536e-008 1.76754e-007 1.12674e-006 2.91761e-007 5.30262e-007 3.18055e-015 0 3.18055e-015 3.75579e-007 9.72536e-008 1.76754e-007 0.014897 -9.53827e-005 -9.57117e-007 -1.90833e-014 -1.59028e-014 -1.27222e-014 3.75579e-007 9.72536e-008 1.76754e-007 0.0190429 -0.00118961 -5.9932e-005 6.36111e-015 3.18055e-015 -0 3.75579e-007 9.72536e-008 1.76754e-007 0.0123264 -0.00326603 -0.000677152 -6.36111e-015 6.36111e-015 4.77083e-015 3.75579e-007 9.72536e-008 1.76754e-007 1.12674e-006 2.91761e-007 5.30262e-007 3.18055e-015 0 3.18055e-015 -4.80066 -23.3238 -2.43518 0.0452887 87.9752 -2.81602 -2.67947 42.992 -0.791831 -1.98896e-006 -1.93308e-006 1.88205e-006 3.92548 -22.6357 -3.02215 -0.0296825 88.7309 2.97407 2.80111 43.8901 0.834142 -3.18055e-015 1.98785e-016 3.97569e-016 
-61.0821 13.9168 24.787 -7.7074 5.3396 93.9919 -2.65273 16.7471 -0.229807 -5.61921 33.4857 0.422525 -5.61926 33.4857 0.422614 -1.30268e-005 -29.0003 -1.93899e-005 1.0108e-005 -12.8902 -1.59144e-005 -0.00456851 -10.7418 -0.00559603 16.889 -11.6767 -84.3365 -4.70673e-007 1.6473e-006 -11.8181 58.9615 -0.153504 0.0197901 -8.46975e-007 -6.54425e-008 4.86514e-008 -8.46975e-007 -6.54425e-008 4.86514e-008 -8.46975e-007 -6.54425e-008 4.86514e-008 -8.46975e-007 -6.54425e-008 4.86514e-008 -0.0146172 -8.91834e-005 5.77553e-007 -8.46966e-007 -6.54487e-008 4.86437e-008 -8.46975e-007 -6.54425e-008 4.86514e-008 -0.0187528 -0.00117609 5.94189e-005 -8.46963e-007 -6.54493e-008 4.86494e-008 -8.46975e-007 -6.54425e-008 4.86514e-008 -0.0122615 -0.00324623 0.000675695 -8.46966e-007 -6.54408e-008 4.8668e-008 -8.46975e-007 -6.54425e-008 4.86514e-008 -8.46975e-007 -6.54425e-008 4.86514e-008 -8.46975e-007 -6.54425e-008 4.86514e-008 -4.63952e-006 -10.7431 3.91518e-006 31.3592 -11.7051 84.3847 -12.3456 17.359 36.2612 -49.3347 32.2228 -0.00268675 2.30095e-007 -8.37136e-008 -1.67565e-006 1.99888e-007 -1.7304e-006 1.41237e-007 2.30095e-007 -8.37136e-008 -1.67565e-006 2.30095e-007 -8.37136e-008 -1.67565e-006 0.0149904 -9.21265e-005 -4.4275e-007 2.30122e-007 -8.3933e-008 -1.67564e-006 2.30095e-007 -8.37136e-008 -1.67565e-006 0.0189958 -0.00119189 -6.0761e-005 3.84854e-007 -2.74767e-007 -1.72081e-006 2.30095e-007 -8.37136e-008 -1.67565e-006 0.0122569 -0.00324718 -0.000672376 2.30071e-007 -8.38977e-008 -1.67565e-006 2.30095e-007 -8.37136e-008 -1.67565e-006 1.99888e-007 -1.7304e-006 1.41237e-007 2.30095e-007 -8.37136e-008 -1.67565e-006 -8.10858 -34.0625 -5.26302 179.947 55.8724 174.695 -0.0295343 65.8853 -3.54687 -9.54549e-008 2.38472e-006 -1.17525e-007 5.29091 -33.2669 -3.37681 -179.939 52.6 -174.543 -0.428412 65.4323 3.94558 -1.54487e-031 -2.78299e-015 -3.18055e-015 
-56.5997 17.6738 23.8793 -7.00248 -0.0023482 89.998 -2.15695 15.7993 -0.403028 -4.46495 31.6022 -0.168634 -4.46495 31.6022 -0.168629 0.000200566 -27 7.02199e-005 -1.71434e-005 -12.0013 1.18831e-005 -0.0173276 -9.99723 -0.0215304 17.2023 -16.5032 -80.1825 6.60304e-006 -1.84333e-006 -11.0031 54.5765 -0.592269 0.0757423 9.93923e-016 3.18055e-015 3.18055e-015 -1.98785e-016 3.18055e-015 3.18055e-015 -1.76556e-031 3.18055e-015 3.18055e-015 9.93923e-016 3.18055e-015 3.18055e-015 -0.0146091 -8.90401e-005 -1.34277e-006 -1.98785e-016 7.95139e-016 3.18055e-015 9.93923e-016 3.18055e-015 3.18055e-015 -0.0187511 -0.00117608 6.06171e-005 -7.95139e-016 0 -3.18055e-015 9.93923e-016 3.18055e-015 3.18055e-015 -0.0122579 -0.00324529 0.000675109 3.97569e-016 7.95139e-016 -0 9.93923e-016 3.18055e-015 3.18055e-015 -1.98785e-016 3.18055e-015 3.18055e-015 -1.76556e-031 3.18055e-015 3.18055e-015 -3.62226e-006 -10.0022 1.51379e-005 27.4903 -16.6732 80.4575 -10.2712 15.9254 33.4396 -45.7159 30.0005 -0.00244323 7.95139e-016 0 -7.95139e-016 -0 0 7.95139e-016 -3.97569e-016 -6.36111e-015 -0 7.95139e-016 0 -7.95139e-016 0.0150034 -9.22912e-005 3.52992e-008 -1.34594e-007 3.93922e-007 -2.39554e-007 7.95139e-016 0 -7.95139e-016 0.0190185 -0.00119161 -5.90755e-005 1.98785e-015 6.36111e-015 -2.38542e-015 7.95139e-016 0 -7.95139e-016 0.012262 -0.00324601 -0.000676378 1.59028e-015 0 -7.95139e-016 7.95139e-016 0 -7.95139e-016 -0 0 7.95139e-016 -3.97569e-016 -6.36111e-015 -0 -7.38493 -31.5412 -4.38651 179.964 63.817 175.429 -1.2183 60.5976 -2.35667 2.75224e-006 -3.45126e-006 -4.11849e-008 5.09206 -30.9361 -3.47233 -179.959 61.0741 -175.237 0.968686 60.5634 2.6338 -1.27621e-006 -1.06655e-006 1.4176e-007 
